<?xml version="1.0" standalone="no"?><!DOCTYPE svg PUBLIC "-//W3C//DTD SVG 1.1//EN" "http://www.w3.org/Graphics/SVG/1.1/DTD/svg11.dtd"><svg t="1553135864358" class="icon" style="" viewBox="0 0 1024 1024" version="1.1" xmlns="http://www.w3.org/2000/svg" p-id="2655" xmlns:xlink="http://www.w3.org/1999/xlink" width="32" height="32"><defs><style type="text/css"></style></defs><path d="M511.502629 0c282.916571 0 511.502629 228.586057 511.502628 511.502629 0 282.916571-228.586057 509.893486-511.502628 509.893485C228.586057 1021.396114 0 792.810057 0 509.893486 0 226.976914 228.586057 0 511.502629 0z m-120.159086 375.456914c-0.087771 0.058514-11.4688 5.558857-15.36 14.687086-58.1632 136.630857-112.991086 264.689371-164.425143 384.175543-14.160457 33.294629 0 54.330514 38.385371 38.414628 118.842514-50.322286 125.600914-53.979429 383.444115-164.074057 12.463543-4.593371 15.272229-15.272229 15.272228-15.272228 99.357257-230.4 154.038857-358.1952 164.074057-383.414857 15.272229-38.414629-5.032229-52.370286-38.414628-38.414629l-382.976 163.898514z" fill="#48ACF6" p-id="2656"></path><path d="M463.550171 510.010514c0 27.150629 20.772571 47.952457 47.952458 47.952457a47.104 47.104 0 0 0 47.952457-47.981714 47.104 47.104 0 0 0-47.952457-47.9232c-27.179886 0-47.981714 20.772571-47.981715 47.952457" fill="#48ACF6" p-id="2657"></path></svg>