<?xml version="1.0" standalone="no"?><!DOCTYPE svg PUBLIC "-//W3C//DTD SVG 1.1//EN" "http://www.w3.org/Graphics/SVG/1.1/DTD/svg11.dtd"><svg t="1548748448423" class="icon" style="" viewBox="0 0 1024 1024" version="1.1" xmlns="http://www.w3.org/2000/svg" p-id="1325" xmlns:xlink="http://www.w3.org/1999/xlink" width="32" height="32"><defs><style type="text/css"></style></defs><path d="M768 946.176H256c-98.304 0-178.176-79.872-178.176-178.176V256c0-98.304 79.872-178.176 178.176-178.176h512c98.304 0 178.176 79.872 178.176 178.176v512c0 98.304-79.872 178.176-178.176 178.176zM256 135.168c-66.56 0-120.832 54.272-120.832 120.832v512c0 66.56 54.272 120.832 120.832 120.832h512c66.56 0 120.832-54.272 120.832-120.832V256c0-66.56-54.272-120.832-120.832-120.832H256z" fill="#03A9F4" p-id="1326"></path><path d="M302.6944 386.4576h313.9584c14.5408 0 26.2144-13.9264 26.2144-31.1296 0-17.2032-11.6736-31.1296-26.2144-31.1296H302.6944c-14.5408 0-26.2144 13.9264-26.2144 31.1296 0 17.2032 11.6736 31.1296 26.2144 31.1296zM721.3056 481.0752H302.6944c-14.5408 0-26.2144 14.1312-26.2144 31.5392s11.6736 31.5392 26.2144 31.5392h418.6112c14.5408 0 26.2144-14.1312 26.2144-31.5392s-11.6736-31.5392-26.2144-31.5392zM721.3056 638.1568H302.6944c-14.5408 0-26.2144 13.7216-26.2144 30.9248 0 16.9984 11.6736 30.9248 26.2144 30.9248h418.6112c14.5408 0 26.2144-13.7216 26.2144-30.9248 0-16.9984-11.6736-30.9248-26.2144-30.9248z" fill="#03A9F4" p-id="1327"></path></svg>