<?xml version="1.0" standalone="no"?><!DOCTYPE svg PUBLIC "-//W3C//DTD SVG 1.1//EN" "http://www.w3.org/Graphics/SVG/1.1/DTD/svg11.dtd"><svg t="1548750135951" class="icon" style="" viewBox="0 0 1024 1024" version="1.1" xmlns="http://www.w3.org/2000/svg" p-id="2389" xmlns:xlink="http://www.w3.org/1999/xlink" width="32" height="32"><defs><style type="text/css"></style></defs><path d="M845.312 533.504a38.4 38.4 0 0 0-38.4 38.4v336.896H123.392V123.392h404.48a38.4 38.4 0 0 0 0-76.8H84.992a38.4 38.4 0 0 0-38.4 38.4V947.2a38.4 38.4 0 0 0 38.4 38.4h760.32a38.4 38.4 0 0 0 38.4-38.4v-375.296a38.4 38.4 0 0 0-38.4-38.4z" fill="#1F88D9" p-id="2390"></path><path d="M950.272 173.568l-108.032-108.032a90.112 90.112 0 0 0-126.976 0L377.856 400.896a38.4 38.4 0 0 0-11.264 27.648v186.88a38.4 38.4 0 0 0 38.4 37.888H409.6l181.248-4.096a38.4 38.4 0 0 0 23.552-11.264l337.92-336.896a86.528 86.528 0 0 0 25.6-61.952 91.648 91.648 0 0 0-27.648-65.536z m-51.2 72.704l-326.144 326.144-126.976 2.56V443.392L768 118.272a13.824 13.824 0 0 1 18.432 0l109.568 110.08a15.36 15.36 0 0 1 4.608 11.264 10.752 10.752 0 0 1-2.56 7.168zM267.264 826.88h404.48a38.4 38.4 0 0 0 0-76.8h-404.48a38.4 38.4 0 1 0 0 76.8z" fill="#1F88D9" p-id="2391"></path></svg>